<svg width="20" height="20" viewBox="0 0 20 20" fill="none" xmlns="http://www.w3.org/2000/svg">
<g clip-path="url(#clip0_1_40)">
<path d="M10 2.5C5.37928 2.5 1.45897 5.63347 0 10C1.45897 14.3666 5.37928 17.5 10 17.5C14.6207 17.5 18.541 14.3665 20 10C18.541 5.63347 14.6207 2.5 10 2.5V2.5ZM10 15C7.23855 15 5 12.7614 5 10C5 7.23857 7.23855 5.00002 10 5.00002C12.7614 5.00002 15 7.23857 15 10C15 12.7614 12.7614 15 10 15Z" fill="white"/>
<path d="M11.7677 8.23217C12.7441 9.20847 12.7441 10.7914 11.7677 11.7677C10.7914 12.744 9.20853 12.744 8.23223 11.7677C7.25592 10.7914 7.25592 9.20847 8.23223 8.23217C9.20853 7.25586 10.7914 7.25586 11.7677 8.23217" fill="white"/>
</g>
<defs>
<clipPath id="clip0_1_40">
<rect width="20" height="20" fill="white"/>
</clipPath>
</defs>
</svg>
