<svg width="188" height="29" viewBox="0 0 188 29" fill="none" xmlns="http://www.w3.org/2000/svg">
<path d="M0 0.636719V28.0195H6.19141V19.7383H11.2109C17.6562 19.7383 20.8789 16.5547 20.8789 10.1875C20.8789 3.82031 17.6562 0.636719 11.2109 0.636719H0ZM10.2734 6.4375C13.0599 6.4375 14.4531 7.66146 14.4531 10.1094C14.4531 12.5703 13.0599 13.8008 10.2734 13.8008H6.19141V6.4375H10.2734ZM36.1922 0.460938C42.7417 0.460938 46.0164 5.08333 46.0164 14.3281C46.0164 23.5729 42.7417 28.1953 36.1922 28.1953H31.8758C25.3263 28.1953 22.0516 23.5729 22.0516 14.3281C22.0516 5.08333 25.3263 0.460938 31.8758 0.460938H36.1922ZM34.3758 6.35938H33.6922C30.1375 6.38542 28.3602 8.52083 28.3602 12.7656V16.0859C28.3602 20.2656 30.1961 22.3555 33.868 22.3555H34.2C37.8719 22.3555 39.7078 20.2656 39.7078 16.0859V12.7656C39.7078 8.52083 37.9305 6.38542 34.3758 6.35938ZM53.2242 6.32031V28H47.0914L47.0719 0.636719H61.4078C63.4391 0.610677 65.0927 1.20312 66.3688 2.41406C67.6578 3.63802 68.2893 5.32422 68.2633 7.47266C68.2372 9.49089 67.5016 11.2292 66.0563 12.6875L63.6539 15.5195C63.2372 16.0794 63.1786 16.7174 63.4781 17.4336L69.3766 28H61.8766L57.3258 19.0938C56.2451 16.8802 56.2451 15.1224 57.3258 13.8203L61.818 8.42969C62.1956 7.98698 62.3844 7.52474 62.3844 7.04297C62.3844 6.5612 62.0784 6.32031 61.4664 6.32031H53.2242ZM86.682 0.617188V15.0117L77.0531 1.51562C76.6495 0.981771 76.1352 0.617188 75.5102 0.421875C74.8721 0.213542 74.2406 0.213542 73.6156 0.421875C72.9906 0.630208 72.4828 1.0013 72.0922 1.53516C71.7016 2.08203 71.5062 2.68099 71.5062 3.33203V28.0195H77.6391V13.4688L87.2875 26.9844C87.6781 27.5182 88.1859 27.8828 88.8109 28.0781C89.449 28.2865 90.0805 28.2865 90.7055 28.0781C91.3435 27.8698 91.8513 27.4987 92.2289 26.9648C92.6195 26.431 92.8148 25.832 92.8148 25.168V0.617188H86.682Z" fill="url(#paint0_linear_1_394)"/>
<path d="M108.577 22.1602V14.7578H114.769V28H105.589C98.5057 28 94.9641 23.4427 94.9641 14.3281C94.9641 5.21354 98.5057 0.65625 105.589 0.65625H114.769V6.55469H108.343C103.629 6.55469 101.273 8.6901 101.273 12.9609V15.8906C101.273 20.0703 103.538 22.1602 108.07 22.1602H108.577ZM131.039 0.460938C137.589 0.460938 140.863 5.08333 140.863 14.3281C140.863 23.5729 137.589 28.1953 131.039 28.1953H126.723C120.173 28.1953 116.898 23.5729 116.898 14.3281C116.898 5.08333 120.173 0.460938 126.723 0.460938H131.039ZM129.223 6.35938H128.539C124.984 6.38542 123.207 8.52083 123.207 12.7656V16.0859C123.207 20.2656 125.043 22.3555 128.715 22.3555H129.047C132.719 22.3555 134.555 20.2656 134.555 16.0859V12.7656C134.555 8.52083 132.777 6.38542 129.223 6.35938ZM155.083 0.460938C161.632 0.460938 164.907 5.08333 164.907 14.3281C164.907 23.5729 161.632 28.1953 155.083 28.1953H150.766C144.217 28.1953 140.942 23.5729 140.942 14.3281C140.942 5.08333 144.217 0.460938 150.766 0.460938H155.083ZM153.266 6.35938H152.583C149.028 6.38542 147.251 8.52083 147.251 12.7656V16.0859C147.251 20.2656 149.087 22.3555 152.759 22.3555H153.091C156.762 22.3555 158.598 20.2656 158.598 16.0859V12.7656C158.598 8.52083 156.821 6.38542 153.266 6.35938ZM181.392 14.2109C181.392 19.4453 179.739 22.0625 176.431 22.0625H172.115V6.41797H176.431C179.739 6.41797 181.392 9.01562 181.392 14.2109ZM177.369 0.617188L165.962 0.636719V28H177.369C184.335 27.987 187.818 23.4492 187.818 14.3867C187.818 5.20703 184.335 0.617188 177.369 0.617188Z" fill="white"/>
<defs>
<linearGradient id="paint0_linear_1_394" x1="-28.2013" y1="32.3902" x2="194.846" y2="32.3902" gradientUnits="userSpaceOnUse">
<stop stop-color="#00C337"/>
<stop offset="1" stop-color="#0036C1"/>
</linearGradient>
</defs>
</svg>
