<svg width="50" height="50" viewBox="0 0 50 50" fill="none" xmlns="http://www.w3.org/2000/svg">
<path d="M40.2026 19.3301L40.6845 19.9322L40.719 20.7027C40.7592 21.5164 41.4764 38.2697 36.3103 49.7002H50V8.34193C50 7.24638 49.7829 6.16157 49.3612 5.14943C48.9395 4.13729 48.3213 3.21764 47.542 2.44301C46.7628 1.66838 45.8377 1.05393 44.8195 0.634755C43.8014 0.215581 42.7102 -0.000104829 41.6082 3.82216e-08H19.9547C21.6462 0.835231 23.1097 2.06651 23.9643 3.46628C24.8904 4.98343 26.0373 9.82553 25.9859 12.8886C25.9811 13.2375 25.9506 13.7478 25.8928 14.2916C28.5433 14.4441 30.8903 14.7707 32.9015 15.2729C36.291 16.1169 38.748 17.4824 40.2026 19.3301Z" fill="url(#paint0_linear_1_395)"/>
<path d="M21.1017 49.2627C16.1218 48.7596 14.6889 47.2289 14.5154 47.0197L14.4945 46.9941C14.3433 46.9466 14.1965 46.886 14.056 46.8129C8.02557 44.098 8.032 36.1345 8.18381 33.7502C8.42477 29.9254 9.10508 25.2062 10.2721 19.3229C10.9243 16.0363 10.754 13.8675 9.6384 11.0361C8.27296 7.58974 8.08341 2.659 11.9605 3.82206e-08H8.39264C7.2906 -0.000104827 6.19934 0.215581 5.18116 0.634745C4.16297 1.05391 3.2378 1.66834 2.45848 2.44296C1.67915 3.21758 1.06093 4.13721 0.639099 5.14936C0.217272 6.16151 0.000105473 7.24634 0 8.34193V41.3575C-5.04807e-09 42.4532 0.217084 43.5381 0.638864 44.5503C1.06064 45.5625 1.67885 46.4823 2.45819 47.257C3.23753 48.0317 4.16274 48.6462 5.18097 49.0654C6.19921 49.4846 7.29054 49.7003 8.39264 49.7002H20.9989C21.001 49.5487 21.0361 49.3995 21.1017 49.2627Z" fill="url(#paint1_linear_1_395)"/>
<path d="M21.8952 4.71428C20.4213 2.29881 15.9451 0.253062 13.4214 1.91474C10.6777 3.71695 10.7909 7.37408 11.8953 10.1569C13.1949 13.4419 13.3805 16.128 12.6504 19.7884C11.7668 24.244 10.8785 29.3911 10.599 33.8971C10.3725 37.5702 11.101 42.5951 14.7869 44.478C14.5359 43.895 14.4014 43.2691 14.3909 42.635C14.3909 42.5392 14.3909 42.445 14.4037 42.3508C14.4037 42.3372 14.4086 42.3228 14.4094 42.3101C14.5234 41.3846 15.0455 40.5669 15.0455 40.5669C14.8214 40.5797 14.4881 40.8336 14.2238 41.066L14.0632 41.1834L13.672 40.0543C13.5612 39.7453 11.1644 32.6809 15.1684 28.0576L14.8704 27.7622C14.7837 27.6775 12.7604 25.6398 12.8624 22.6015C12.9427 20.3345 14.1604 18.1682 16.4896 16.1616L16.7017 15.9787L16.9804 15.9516C17.1732 15.9332 19.688 15.7 22.994 15.7304C23.0879 15.6122 23.1795 15.4908 23.2646 15.3567V14.4967C24.169 13.3349 22.892 6.34481 21.8952 4.71428Z" fill="white"/>
<path d="M35.6652 19.7963C29.9312 16.5456 17.8607 17.7019 17.8607 17.7019C11.8801 22.8578 16.3917 27.3182 16.3917 27.3182L17.8888 26.4678C17.8021 25.5519 17.8302 23.8926 18.8197 22.2909C18.8197 22.2909 18.1772 24.5362 18.5651 26.2642L27.1328 28.0049L19.0366 28.1207C17.4816 28.1423 16.6856 28.7994 16.3459 29.1867C13.4351 33.2072 15.4704 39.0793 15.4704 39.0793L17.88 37.2875C17.8053 36.3548 17.8631 34.7539 18.8189 33.2072C18.8189 33.2072 18.2567 35.1779 18.4976 36.8475L30.1095 36.9417L20.0302 37.8353C13.9845 40.079 16.623 43.7553 17.5402 44.7958C18.3434 44.2935 19.7611 43.634 21.5281 43.7386C21.5281 43.7386 19.2623 44.2328 17.9089 45.3723C18.3169 46.5062 19.6021 46.9525 21.0928 47.0492C22.0077 46.6624 22.9996 46.489 23.9923 46.5421C23.2876 46.7095 22.5998 46.9409 21.9378 47.2336C22.0558 49.4838 26.9794 49.9221 28.4316 49.9988C29.0228 50.0052 29.6244 49.9852 30.2155 49.9437C30.8316 49.8687 32.5055 49.5588 33.2613 48.3779C37.2668 40.4607 37.6949 28.6134 37.6789 23.6882C37.7078 21.2831 35.7929 19.8874 35.6652 19.7963Z" fill="white"/>
<g opacity="0.3">
<path d="M16.8211 14.3282C16.9095 14.3195 18.8781 14.1318 21.6202 14.1015V13.9418L21.8748 13.6152C22.2082 12.3488 21.2732 6.83991 20.4941 5.56311C19.7359 4.32543 17.5528 2.94563 15.63 2.94563C15.0998 2.94563 14.6613 3.05662 14.3256 3.2794C12.3384 4.58494 12.5947 7.48031 13.4187 9.5628C14.2485 11.6589 14.6709 13.5481 14.7111 15.5723C14.9344 15.3567 15.1673 15.1451 15.4123 14.9335L15.6251 14.7507L16.0187 14.4097L16.5368 14.3586L16.8211 14.3282ZM12.7987 28.5599C12.879 28.4202 12.9641 28.2828 13.0533 28.1487C12.9995 28.0768 12.9433 28.0026 12.887 27.9219C12.8589 28.1343 12.8284 28.3483 12.7987 28.5599ZM8.29032 1.63049C6.51826 1.65938 4.82848 2.37891 3.58478 3.63415C2.34107 4.88939 1.64291 6.57996 1.64062 8.34189V25.1423C3.42735 26.14 5.26427 27.0462 7.14415 27.8572C7.50559 25.227 8.00518 22.2997 8.6614 19.0051C9.25416 16.0306 9.11441 14.1701 8.11362 11.6325C6.95059 8.69482 6.54417 4.77419 8.29193 1.63049H8.29032ZM34.7614 21.165C32.3767 19.8539 28.1326 19.132 22.7881 19.132C20.8853 19.132 19.3239 19.2254 18.5464 19.2813C17.1809 20.5637 16.4581 21.8581 16.4018 23.1341C16.3914 23.369 16.404 23.6043 16.4396 23.8368C16.6314 22.9886 16.9625 22.1777 17.4195 21.4365L20.397 22.7309C20.2087 23.4416 20.1023 24.1713 20.0797 24.906L27.4603 26.408L27.1543 29.6371L19.0636 29.7505C18.2331 29.7624 17.8203 30.0244 17.6307 30.2096C17.3659 30.593 17.1463 31.0053 16.9761 31.4385C22.4379 33.1058 28.5671 34.5295 35.22 35.6602C35.9373 30.7813 36.0521 26.2051 36.0449 23.6747C36.0561 22.2661 35.0136 21.3598 34.763 21.165H34.7614ZM41.6022 1.63289H24.6627C24.9193 1.94635 25.1544 2.27661 25.3663 2.62143C26.5222 4.51867 27.6482 9.60192 27.629 12.7855C29.7173 12.9708 31.6201 13.275 33.2988 13.691C37.0513 14.6261 39.8095 16.184 41.4914 18.3223L41.9677 18.9236L42.2946 19.3372L42.3179 19.8595L42.3532 20.6252C42.3757 21.0899 42.701 28.3483 41.5091 36.6216C43.7425 36.925 46.0233 37.1965 48.3515 37.436V8.34189C48.35 6.56315 47.6387 4.85767 46.3736 3.59983C45.1085 2.34199 43.3931 1.63458 41.6038 1.63289H41.6022Z" fill="url(#paint2_linear_1_395)" style="mix-blend-mode:soft-light"/>
</g>
<defs>
<linearGradient id="paint0_linear_1_395" x1="-7.38255" y1="42.427" x2="102.03" y2="18.3328" gradientUnits="userSpaceOnUse">
<stop stop-color="#00C337"/>
<stop offset="1" stop-color="#0036C1"/>
</linearGradient>
<linearGradient id="paint1_linear_1_395" x1="-7.38255" y1="42.427" x2="102.03" y2="18.3328" gradientUnits="userSpaceOnUse">
<stop stop-color="#00C337"/>
<stop offset="1" stop-color="#0036C1"/>
</linearGradient>
<linearGradient id="paint2_linear_1_395" x1="71.258" y1="46.7114" x2="71.258" y2="-5.26216" gradientUnits="userSpaceOnUse">
<stop stop-color="white" stop-opacity="0"/>
<stop offset="1"/>
</linearGradient>
</defs>
</svg>
