<svg width="20" height="20" viewBox="0 0 20 20" fill="none" xmlns="http://www.w3.org/2000/svg">
<g clip-path="url(#clip0_1_55)">
<path d="M10 2.49997C5.37928 2.49997 1.45897 5.63344 0 9.99999C1.45897 14.3665 5.37928 17.5 10 17.5C14.6207 17.5 18.541 14.3665 20 9.99999C18.541 5.63344 14.6207 2.49997 10 2.49997ZM10 15C7.23855 15 5 12.7614 5 9.99999C5 7.23854 7.23855 4.99999 10 4.99999C12.7614 4.99999 15 7.23854 15 9.99999C15 12.7614 12.7614 15 10 15Z" fill="#8B98A2"/>
<path d="M11.7677 8.2322C12.7441 9.2085 12.7441 10.7914 11.7677 11.7677C10.7914 12.744 9.20853 12.744 8.23223 11.7677C7.25592 10.7914 7.25592 9.2085 8.23223 8.2322C9.20853 7.25589 10.7914 7.25589 11.7677 8.2322Z" fill="#8B98A2"/>
</g>
<defs>
<clipPath id="clip0_1_55">
<rect width="20" height="20" fill="white"/>
</clipPath>
</defs>
</svg>
