<svg width="6" height="10" viewBox="0 0 6 10" fill="none" xmlns="http://www.w3.org/2000/svg">
<path d="M0.162909 4.6098L4.70779 0.159755C4.8129 0.0567477 4.95323 1.83024e-07 5.10285 1.56863e-07C5.25247 1.30702e-07 5.39279 0.0567476 5.49791 0.159755L5.83261 0.487394C6.0504 0.700889 6.0504 1.04788 5.83261 1.26105L2.01616 4.99793L5.83685 8.73895C5.94196 8.84196 6 8.97928 6 9.1257C6 9.27228 5.94196 9.4096 5.83685 9.51269L5.50215 9.84025C5.39695 9.94325 5.25671 10 5.10708 10C4.95746 10 4.81714 9.94325 4.71202 9.84025L0.162909 5.38614C0.0575428 5.2828 -0.000329549 5.14484 2.30442e-06 4.99817C-0.0003296 4.85094 0.0575427 4.71305 0.162909 4.6098Z" fill="#00C437"/>
</svg>
