<svg width="6" height="10" viewBox="0 0 6 10" fill="none" xmlns="http://www.w3.org/2000/svg">
<path d="M5.83709 4.6098L1.29221 0.159755C1.1871 0.0567477 1.04677 1.83024e-07 0.897152 1.56863e-07C0.74753 1.30702e-07 0.607207 0.0567476 0.50209 0.159755L0.167391 0.487394C-0.0504 0.700889 -0.0504 1.04788 0.167391 1.26105L3.98384 4.99793L0.163155 8.73895C0.0580373 8.84196 -1.56999e-06 8.97928 -1.59559e-06 9.1257C-1.62122e-06 9.27228 0.0580372 9.4096 0.163155 9.51269L0.497853 9.84025C0.603054 9.94325 0.743293 10 0.892916 10C1.04254 10 1.18286 9.94325 1.28798 9.84025L5.83709 5.38614C5.94246 5.2828 6.00033 5.14484 6 4.99817C6.00033 4.85094 5.94246 4.71305 5.83709 4.6098Z" fill="#00C437"/>
</svg>
