<svg width="16" height="16" viewBox="0 0 16 16" fill="none" xmlns="http://www.w3.org/2000/svg">
<g clip-path="url(#clip0_1_313)">
<path d="M10.6393 7.68721L7.31692 5.27212C7.19499 5.18373 7.03313 5.17042 6.89949 5.23911C6.76479 5.30726 6.68066 5.44569 6.68066 5.5953V10.4239C6.68066 10.5751 6.76479 10.713 6.89949 10.7812C6.95646 10.8099 7.01876 10.8243 7.08158 10.8243C7.16358 10.8243 7.24664 10.7982 7.31692 10.7465L10.6393 8.33358C10.7442 8.25638 10.8054 8.13711 10.8054 8.0104C10.8059 7.88155 10.7431 7.76282 10.6393 7.68721Z" fill="#8B98A1"/>
<path d="M8.00027 0.00244141C3.58111 0.00244141 0 3.58355 0 8.00271C0 12.4203 3.58111 16.0003 8.00027 16.0003C12.4184 16.0003 16 12.4197 16 8.00271C16.0005 3.58355 12.4184 0.00244141 8.00027 0.00244141ZM8.00027 14.6655C4.32012 14.6655 1.33639 11.6834 1.33639 8.00271C1.33639 4.32363 4.32012 1.33777 8.00027 1.33777C11.6799 1.33777 14.6631 4.3231 14.6631 8.00271C14.6636 11.6834 11.6799 14.6655 8.00027 14.6655Z" fill="#8B98A1"/>
</g>
<defs>
<clipPath id="clip0_1_313">
<rect width="16" height="16" fill="white"/>
</clipPath>
</defs>
</svg>
