<svg width="30" height="30" viewBox="0 0 30 30" fill="none" xmlns="http://www.w3.org/2000/svg">
<path d="M29.479 26.9652L23.7121 21.1995C25.4599 18.912 26.4185 16.1374 26.4188 13.2096C26.4188 9.68127 25.0444 6.3639 22.5486 3.86904C20.0532 1.37417 16.7355 0 13.2061 0C9.67701 0 6.35894 1.37417 3.86355 3.86904C-1.28785 9.01979 -1.28785 17.4002 3.86355 22.5501C6.35894 25.0454 9.67701 26.4196 13.2061 26.4196C16.1345 26.4192 18.9097 25.4609 21.1977 23.7135L26.9646 29.4792C27.3114 29.8264 27.7668 30 28.2218 30C28.6768 30 29.1322 29.8264 29.479 29.4792C30.1737 28.7851 30.1737 27.6592 29.479 26.9652ZM6.37804 20.0362C2.61325 16.2722 2.61369 10.1474 6.37804 6.383C8.20183 4.56003 10.6269 3.55566 13.2061 3.55566C15.7857 3.55566 18.2103 4.56003 20.0341 6.383C21.8579 8.2064 22.8624 10.6309 22.8624 13.2096C22.8624 15.7887 21.8579 18.2128 20.0341 20.0362C18.2103 21.8596 15.7857 22.8639 13.2061 22.8639C10.6269 22.8639 8.20183 21.8596 6.37804 20.0362Z" fill="#00C337"/>
</svg>
