<svg width="14" height="14" viewBox="0 0 14 14" fill="none" xmlns="http://www.w3.org/2000/svg">
<g clip-path="url(#clip0_1_292)">
<path d="M3.52762 6.51225L9.09028 0.949694C9.21894 0.820935 9.39069 0.75 9.57381 0.75C9.75694 0.75 9.92869 0.820935 10.0573 0.949694L10.467 1.35924C10.7336 1.62611 10.7336 2.05985 10.467 2.32631L5.7959 6.99741L10.4722 11.6737C10.6008 11.8024 10.6719 11.9741 10.6719 12.1571C10.6719 12.3404 10.6008 12.512 10.4722 12.6409L10.0625 13.0503C9.93377 13.1791 9.76213 13.25 9.579 13.25C9.39587 13.25 9.22412 13.1791 9.09547 13.0503L3.52762 7.48267C3.39866 7.3535 3.32783 7.18105 3.32823 6.99771C3.32783 6.81367 3.39866 6.64131 3.52762 6.51225Z" fill="white"/>
</g>
<defs>
<clipPath id="clip0_1_292">
<rect width="12.5" height="12.5" fill="white" transform="matrix(-1 1.74846e-07 1.74846e-07 1 13.25 0.75)"/>
</clipPath>
</defs>
</svg>
