<svg width="14" height="14" viewBox="0 0 14 14" fill="none" xmlns="http://www.w3.org/2000/svg">
<g clip-path="url(#clip0_1_367)">
<path d="M10.4724 6.51225L4.90972 0.949694C4.78106 0.820935 4.60931 0.75 4.42619 0.75C4.24306 0.75 4.07131 0.820935 3.94265 0.949694L3.533 1.35924C3.26644 1.62611 3.26644 2.05985 3.533 2.32631L8.2041 6.99741L3.52782 11.6737C3.39916 11.8024 3.32812 11.9741 3.32812 12.1571C3.32812 12.3404 3.39916 12.512 3.52782 12.6409L3.93747 13.0503C4.06623 13.1791 4.23787 13.25 4.421 13.25C4.60413 13.25 4.77588 13.1791 4.90453 13.0503L10.4724 7.48267C10.6013 7.3535 10.6722 7.18105 10.6718 6.99771C10.6722 6.81367 10.6013 6.64131 10.4724 6.51225Z" fill="white"/>
</g>
<defs>
<clipPath id="clip0_1_367">
<rect width="12.5" height="12.5" fill="white" transform="translate(0.75 0.75)"/>
</clipPath>
</defs>
</svg>
